<svg width="234" height="233" viewBox="0 0 234 233" fill="none" xmlns="http://www.w3.org/2000/svg">
<path d="M122 185C183.857 185 234.001 145.601 234.001 97C234.001 48.399 183.857 9 122 9C60.1444 9 10.0001 48.399 10.0001 97C10.0001 145.601 60.1444 185 122 185Z" fill="#2B8A87"/>
<path d="M234 97H10V217H234V97Z" fill="#2B8A87"/>
<path d="M26 233C34.8366 233 42 225.837 42 217C42 208.163 34.8366 201 26 201C17.1634 201 10 208.163 10 217C10 225.837 17.1634 233 26 233Z" fill="#2B8A87"/>
<path d="M58 233C66.8366 233 74 225.837 74 217C74 208.163 66.8366 201 58 201C49.1634 201 42 208.163 42 217C42 225.837 49.1634 233 58 233Z" fill="#2B8A87"/>
<path d="M90 233C98.8366 233 106 225.837 106 217C106 208.163 98.8366 201 90 201C81.1634 201 74 208.163 74 217C74 225.837 81.1634 233 90 233Z" fill="#2B8A87"/>
<path d="M122 233C130.837 233 138 225.837 138 217C138 208.163 130.837 201 122 201C113.163 201 106 208.163 106 217C106 225.837 113.163 233 122 233Z" fill="#2B8A87"/>
<path d="M154 233C162.837 233 170 225.837 170 217C170 208.163 162.837 201 154 201C145.163 201 138 208.163 138 217C138 225.837 145.163 233 154 233Z" fill="#2B8A87"/>
<path d="M186 233C194.837 233 202 225.837 202 217C202 208.163 194.837 201 186 201C177.163 201 170 208.163 170 217C170 225.837 177.163 233 186 233Z" fill="#2B8A87"/>
<path d="M218 233C226.837 233 234 225.837 234 217C234 208.163 226.837 201 218 201C209.163 201 202 208.163 202 217C202 225.837 209.163 233 218 233Z" fill="#2B8A87"/>
<path d="M112 176C173.857 176 224.001 136.601 224.001 88C224.001 39.399 173.857 0 112 0C50.1444 0 0.00012207 39.399 0.00012207 88C0.00012207 136.601 50.1444 176 112 176Z" fill="#D9D9D9"/>
<path d="M224 88H0V208H224V88Z" fill="#D9D9D9"/>
<path d="M16 224C24.8366 224 32 216.837 32 208C32 199.163 24.8366 192 16 192C7.16344 192 0 199.163 0 208C0 216.837 7.16344 224 16 224Z" fill="#D9D9D9"/>
<path d="M48 224C56.8366 224 64 216.837 64 208C64 199.163 56.8366 192 48 192C39.1634 192 32 199.163 32 208C32 216.837 39.1634 224 48 224Z" fill="#D9D9D9"/>
<path d="M80 224C88.8366 224 96 216.837 96 208C96 199.163 88.8366 192 80 192C71.1634 192 64 199.163 64 208C64 216.837 71.1634 224 80 224Z" fill="#D9D9D9"/>
<path d="M112 224C120.837 224 128 216.837 128 208C128 199.163 120.837 192 112 192C103.163 192 96 199.163 96 208C96 216.837 103.163 224 112 224Z" fill="#D9D9D9"/>
<path d="M144 224C152.837 224 160 216.837 160 208C160 199.163 152.837 192 144 192C135.163 192 128 199.163 128 208C128 216.837 135.163 224 144 224Z" fill="#D9D9D9"/>
<path d="M176 224C184.837 224 192 216.837 192 208C192 199.163 184.837 192 176 192C167.163 192 160 199.163 160 208C160 216.837 167.163 224 176 224Z" fill="#D9D9D9"/>
<path d="M208 224C216.837 224 224 216.837 224 208C224 199.163 216.837 192 208 192C199.163 192 192 199.163 192 208C192 216.837 199.163 224 208 224Z" fill="#D9D9D9"/>
<path d="M48 111C56.8366 111 64 103.837 64 95C64 86.1634 56.8366 79 48 79C39.1634 79 32 86.1634 32 95C32 103.837 39.1634 111 48 111Z" fill="#242424"/>
<path d="M128 111C136.837 111 144 103.837 144 95C144 86.1634 136.837 79 128 79C119.163 79 112 86.1634 112 95C112 103.837 119.163 111 128 111Z" fill="#242424"/>
</svg>
