<svg width="232" height="231" viewBox="0 0 232 231" fill="none" xmlns="http://www.w3.org/2000/svg">
<path d="M120 183C181.857 183 232.001 143.601 232.001 95C232.001 46.399 181.857 7 120 7C58.1444 7 8.00012 46.399 8.00012 95C8.00012 143.601 58.1444 183 120 183Z" fill="#888098"/>
<path d="M232 95H8V215H232V95Z" fill="#888098"/>
<path d="M24 231C32.8366 231 40 223.837 40 215C40 206.163 32.8366 199 24 199C15.1634 199 8 206.163 8 215C8 223.837 15.1634 231 24 231Z" fill="#888098"/>
<path d="M56 231C64.8366 231 72 223.837 72 215C72 206.163 64.8366 199 56 199C47.1634 199 40 206.163 40 215C40 223.837 47.1634 231 56 231Z" fill="#888098"/>
<path d="M88 231C96.8366 231 104 223.837 104 215C104 206.163 96.8366 199 88 199C79.1634 199 72 206.163 72 215C72 223.837 79.1634 231 88 231Z" fill="#888098"/>
<path d="M120 231C128.837 231 136 223.837 136 215C136 206.163 128.837 199 120 199C111.163 199 104 206.163 104 215C104 223.837 111.163 231 120 231Z" fill="#888098"/>
<path d="M152 231C160.837 231 168 223.837 168 215C168 206.163 160.837 199 152 199C143.163 199 136 206.163 136 215C136 223.837 143.163 231 152 231Z" fill="#888098"/>
<path d="M184 231C192.837 231 200 223.837 200 215C200 206.163 192.837 199 184 199C175.163 199 168 206.163 168 215C168 223.837 175.163 231 184 231Z" fill="#888098"/>
<path d="M216 231C224.837 231 232 223.837 232 215C232 206.163 224.837 199 216 199C207.163 199 200 206.163 200 215C200 223.837 207.163 231 216 231Z" fill="#888098"/>
<path d="M112 176C173.857 176 224.001 136.601 224.001 88C224.001 39.399 173.857 0 112 0C50.1444 0 0.00012207 39.399 0.00012207 88C0.00012207 136.601 50.1444 176 112 176Z" fill="#215957"/>
<path d="M224 88H0V208H224V88Z" fill="#215957"/>
<path d="M16 224C24.8366 224 32 216.837 32 208C32 199.163 24.8366 192 16 192C7.16344 192 0 199.163 0 208C0 216.837 7.16344 224 16 224Z" fill="#215957"/>
<path d="M48 224C56.8366 224 64 216.837 64 208C64 199.163 56.8366 192 48 192C39.1634 192 32 199.163 32 208C32 216.837 39.1634 224 48 224Z" fill="#215957"/>
<path d="M80 224C88.8366 224 96 216.837 96 208C96 199.163 88.8366 192 80 192C71.1634 192 64 199.163 64 208C64 216.837 71.1634 224 80 224Z" fill="#215957"/>
<path d="M112 224C120.837 224 128 216.837 128 208C128 199.163 120.837 192 112 192C103.163 192 96 199.163 96 208C96 216.837 103.163 224 112 224Z" fill="#215957"/>
<path d="M144 224C152.837 224 160 216.837 160 208C160 199.163 152.837 192 144 192C135.163 192 128 199.163 128 208C128 216.837 135.163 224 144 224Z" fill="#215957"/>
<path d="M176 224C184.837 224 192 216.837 192 208C192 199.163 184.837 192 176 192C167.163 192 160 199.163 160 208C160 216.837 167.163 224 176 224Z" fill="#215957"/>
<path d="M208 224C216.837 224 224 216.837 224 208C224 199.163 216.837 192 208 192C199.163 192 192 199.163 192 208C192 216.837 199.163 224 208 224Z" fill="#215957"/>
<path d="M48 111C56.8366 111 64 103.837 64 95C64 86.1634 56.8366 79 48 79C39.1634 79 32 86.1634 32 95C32 103.837 39.1634 111 48 111Z" fill="#888098"/>
<path d="M128 111C136.837 111 144 103.837 144 95C144 86.1634 136.837 79 128 79C119.163 79 112 86.1634 112 95C112 103.837 119.163 111 128 111Z" fill="#888098"/>
</svg>
